<svg xmlns="http://www.w3.org/2000/svg" version="1.1" xmlns:xlink="http://www.w3.org/1999/xlink" xmlns:svgjs="http://svgjs.dev/svgjs" width="100%" height="100%" viewBox="0 0 1000 600"><rect width="1000" height="600" x="0" y="0" fill="#778de4"/><g><rect width="333.3333333333333" height="333.3333333333333" rx="13.333333333333334" ry="13.333333333333334" y="123.35314901124615" fill="#c3cdf3" transform="matrix(1.236021877226451,0,0,1.2360218772264508,0,-58.47082121507293)" x="101.13092041015625"/><path d="M343.1331265859711 215.01980419226913L362.85691579059306 215.01980419226913L322.9425021339026 365.01980463747793L303.8314341915545 365.01980463747793L274.6250540231721 266.69263064402264Q272.9619534541433 260.62377242721584 271.2696756821491 254.52573700744372Q269.60657511312036 248.42770158767158 268.55619580636534 243.70099470727402Q267.5058164996103 238.97428782687646 267.06815845512904 237.07776963412437L267.06815845512904 237.07776963412437Q266.8639180343711 239.82042671287357 264.8798682327228 248.74865082029115Q262.866641228109 257.6768749277088 259.91974372860193 267.3345291092618L259.91974372860193 267.3345291092618L231.55950244621658 365.01980463747793L212.44843450386844 365.01980463747793L172.7382612679359 215.01980419226913L192.49122767552322 215.01980419226913L215.8038128448914 306.607044300713Q218.34222950288267 316.29387568523157 220.12203888377314 325.3096314015454Q221.90184826466356 334.3545643208247 222.95222757141858 342.31994073038356L222.95222757141858 342.31994073038356Q224.0026068781736 334.1503239000667 226.1033654916836 324.4634925155483Q228.2041241051936 314.8058383339953 230.94678118394282 305.55666499395807L230.94678118394282 305.55666499395807L257.41050427357607 215.01980419226913L276.95923026040543 215.01980419226913L304.4733326567937 306.1985634591972Q307.4202301563008 315.8562176407503 309.52098876981086 325.4263402134071Q311.6217473833208 334.9672855830985 312.67212669007586 342.31994073038356L312.67212669007586 342.31994073038356Q313.7225059968308 334.55880474158266 315.58984698661754 325.4263402134071Q317.4863651793696 316.29387568523157 320.02478183736093 306.4028038799552L320.02478183736093 306.4028038799552L343.1331265859711 215.01980419226913Z " fill="#1b3188" transform="matrix(1.236021877226451,0,0,1.2360218772264508,0,-58.47082121507293)"/><path d="M688.1924527578461 215.01980419226913L707.916241962468 215.01980419226913L668.0018283057776 365.01980463747793L648.8907603634295 365.01980463747793L619.6843801950471 266.69263064402264Q618.0212796260183 260.62377242721584 616.3290018540241 254.52573700744372Q614.6659012849954 248.42770158767158 613.6155219782404 243.70099470727402Q612.5651426714853 238.97428782687646 612.1274846270042 237.07776963412437L612.1274846270042 237.07776963412437Q611.9232442062462 239.82042671287357 609.9391944045979 248.74865082029115Q607.9259673999841 257.6768749277088 604.9790699004769 267.3345291092618L604.9790699004769 267.3345291092618L576.6188286180916 365.01980463747793L557.5077606757435 365.01980463747793L517.797587439811 215.01980419226913L537.5505538473983 215.01980419226913L560.8631390167664 306.607044300713Q563.4015556747577 316.29387568523157 565.1813650556481 325.3096314015454Q566.9611744365386 334.3545643208247 568.0115537432936 342.31994073038356L568.0115537432936 342.31994073038356Q569.0619330500485 334.1503239000667 571.1626916635587 324.4634925155483Q573.2634502770686 314.8058383339953 576.0061073558179 305.55666499395807L576.0061073558179 305.55666499395807L602.4698304454511 215.01980419226913L622.0185564322804 215.01980419226913L649.5326588286687 306.1985634591972Q652.4795563281758 315.8562176407503 654.5803149416859 325.4263402134071Q656.6810735551959 334.9672855830985 657.7314528619509 342.31994073038356L657.7314528619509 342.31994073038356Q658.7818321687058 334.55880474158266 660.6491731584925 325.4263402134071Q662.5456913512447 316.29387568523157 665.0841080092359 306.4028038799552L665.0841080092359 306.4028038799552L688.1924527578461 215.01980419226913Z " fill="#ccab29" transform="matrix(1.236021877226451,0,0,1.2360218772264508,0,-58.47082121507293)"/></g></svg>
